<?xml version="1.0" standalone="no"?>
<!DOCTYPE svg PUBLIC "-//W3C//DTD SVG 20010904//EN"
 "http://www.w3.org/TR/2001/REC-SVG-20010904/DTD/svg10.dtd">
<svg version="1.0" xmlns="http://www.w3.org/2000/svg"
 width="1024.000000pt" height="1024.000000pt" viewBox="0 0 1024.000000 1024.000000"
 preserveAspectRatio="xMidYMid meet">
<metadata>
Created by potrace 1.14, written by Peter Selinger 2001-2017
</metadata>
<g transform="translate(0.000000,1024.000000) scale(0.100000,-0.100000)"
fill="#000000" stroke="none">
<path d="M3514 6987 c-3 -8 2 -27 11 -41 17 -25 21 -26 114 -27 53 0 132 -4
176 -10 44 -5 161 -13 260 -18 174 -8 275 -27 275 -52 0 -13 -29 -17 -253 -34
-114 -8 -213 -16 -220 -16 -6 -1 15 -7 48 -14 l60 -12 -70 -7 c-111 -12 -100
-14 63 -15 83 -1 152 -5 152 -10 0 -5 -11 -34 -25 -65 -14 -31 -25 -66 -25
-77 0 -11 -4 -28 -10 -38 -47 -88 -39 -1369 9 -1401 4 -3 9 -27 10 -55 1 -27
6 -52 12 -56 20 -12 -64 -50 -164 -74 -185 -44 -143 -60 137 -52 146 4 200 10
265 27 45 12 79 25 76 28 -3 3 -48 5 -100 3 -52 -1 -95 1 -95 6 1 4 23 18 50
31 28 13 54 31 59 40 5 10 5 42 -1 77 -10 61 -2 820 11 1075 l6 125 8 -210 c4
-115 7 -343 6 -505 -1 -162 2 -316 6 -342 7 -45 28 -78 42 -65 13 14 22 188
23 487 1 207 5 308 11 295 8 -17 9 -16 4 5 -22 95 -27 192 -29 471 -1 252 -4
319 -15 332 -7 10 -10 17 -7 17 8 0 -10 23 -48 61 -16 15 -43 31 -58 35 -16 3
-32 12 -35 20 -4 10 -23 14 -64 14 -128 0 -313 22 -355 42 -31 14 -47 17 -61
10 -19 -10 -67 -9 -185 3 -56 7 -69 5 -74 -8z m843 -193 c-3 -3 -12 -4 -19 -1
-8 3 -5 6 6 6 11 1 17 -2 13 -5z m20 -176 c-3 -8 -6 -5 -6 6 -1 11 2 17 5 13
3 -3 4 -12 1 -19z m-170 -79 c26 -80 37 -316 37 -794 0 -389 -3 -489 -15 -530
-11 -39 -19 -50 -34 -50 -23 0 -23 -2 -7 135 30 254 22 950 -13 1169 -9 51
-13 97 -9 102 11 18 29 3 41 -32z m192 -269 c18 -394 13 -1010 -8 -1010 -3 0
-6 246 -6 548 0 301 -3 597 -7 657 -3 66 -3 96 2 75 5 -19 14 -141 19 -270z
m-262 -992 c-3 -8 -6 -5 -6 6 -1 11 2 17 5 13 3 -3 4 -12 1 -19z m17 -73 c5
-22 4 -26 -4 -15 -5 8 -10 24 -10 34 0 26 6 18 14 -19z"/>
<path d="M4191 5223 c-1 -6 -4 -20 -7 -30 -5 -17 -5 -17 6 0 6 10 9 23 6 30
-3 9 -5 9 -5 0z"/>
<path d="M3566 6885 c5 -11 14 -15 28 -11 11 3 43 6 70 6 68 0 55 6 -31 14
-65 6 -72 5 -67 -9z"/>
<path d="M4203 6843 c9 -2 23 -2 30 0 6 3 -1 5 -18 5 -16 0 -22 -2 -12 -5z"/>
<path d="M2653 6783 c20 -2 54 -2 75 0 20 2 3 4 -38 4 -41 0 -58 -2 -37 -4z"/>
<path d="M3123 6673 c0 -65 0 -113 2 -108 14 50 26 160 21 189 -13 68 -22 36
-23 -81z"/>
<path d="M2668 6753 c17 -2 47 -2 65 0 17 2 3 4 -33 4 -36 0 -50 -2 -32 -4z"/>
<path d="M2941 6648 c1 -61 5 -126 9 -142 4 -17 7 33 7 112 -1 78 -5 142 -9
142 -5 0 -8 -50 -7 -112z"/>
<path d="M3382 6690 c0 -14 2 -19 5 -12 2 6 2 18 0 25 -3 6 -5 1 -5 -13z"/>
<path d="M3315 6668 c-10 -45 -9 -216 1 -206 6 7 15 228 8 228 -2 0 -6 -10 -9
-22z"/>
<path d="M3835 6556 c-9 -14 -15 -31 -12 -38 4 -9 6 -7 6 4 1 9 8 24 17 33 9
9 14 18 11 21 -3 3 -13 -6 -22 -20z"/>
<path d="M2602 6500 c0 -14 2 -19 5 -12 2 6 2 18 0 25 -3 6 -5 1 -5 -13z"/>
<path d="M3811 6484 c0 -11 3 -14 6 -6 3 7 2 16 -1 19 -3 4 -6 -2 -5 -13z"/>
<path d="M3123 6440 c0 -25 2 -35 4 -22 2 12 2 32 0 45 -2 12 -4 2 -4 -23z"/>
<path d="M3796 6423 c-3 -21 -9 -184 -12 -364 -9 -466 15 -823 63 -924 9 -19
20 -35 25 -35 12 0 10 12 -6 29 -18 20 -43 144 -56 281 -17 176 -24 748 -11
904 11 134 10 188 -3 109z"/>
<path d="M6130 6421 c0 -5 8 -7 18 -4 10 2 36 -9 60 -26 23 -17 42 -27 42 -21
0 5 -4 10 -9 10 -5 0 -19 11 -32 25 -23 24 -79 35 -79 16z"/>
<path d="M2510 6384 c-7 -17 -6 -40 1 -70 6 -25 9 -64 7 -88 -4 -35 -2 -45 14
-55 18 -11 19 -7 16 101 -2 82 -6 112 -15 111 -7 -2 -10 4 -7 12 4 8 3 15 0
15 -4 0 -11 -12 -16 -26z"/>
<path d="M2213 6323 c9 -2 23 -2 30 0 6 3 -1 5 -18 5 -16 0 -22 -2 -12 -5z"/>
<path d="M2672 6100 c0 -14 2 -19 5 -12 2 6 2 18 0 25 -3 6 -5 1 -5 -13z"/>
<path d="M4583 4960 c-18 -11 -72 -33 -120 -50 -49 -17 -99 -40 -113 -51 l-25
-20 40 19 c22 11 60 25 85 32 59 16 180 71 180 81 0 14 -12 11 -47 -11z"/>
<path d="M3390 4920 l25 -20 -25 0 c-22 -1 -23 -2 -7 -11 12 -7 35 -7 70 -1
29 5 42 10 30 11 -29 1 -41 21 -13 21 12 0 18 5 15 10 -3 6 -32 10 -63 10
l-57 0 25 -20z"/>
<path d="M2673 4847 l37 -45 -31 -7 c-17 -4 -61 -4 -98 0 -97 10 -71 -1 44
-20 117 -18 208 -58 254 -111 17 -19 31 -30 31 -25 0 5 -4 13 -10 16 -22 13
-8 24 23 18 40 -7 36 -4 -40 41 -34 20 -91 62 -125 92 -35 30 -76 62 -93 71
l-30 16 38 -46z"/>
<path d="M3705 4840 l-30 -8 35 0 c19 0 46 4 60 8 24 8 24 8 -5 8 -16 0 -43
-4 -60 -8z"/>
<path d="M3596 4783 c-2 -10 -7 -63 -11 -118 -3 -55 -11 -149 -16 -209 -12
-124 -8 -156 22 -156 19 0 19 1 5 22 -22 31 -20 51 14 169 21 70 33 137 37
207 l6 102 -26 0 c-16 0 -28 -7 -31 -17z"/>
<path d="M4165 4721 c-3 -5 -1 -12 4 -15 5 -3 11 1 15 9 6 16 -9 21 -19 6z"/>
<path d="M4417 4394 c-3 -3 -23 -12 -44 -19 -38 -14 -38 -14 -7 -15 30 0 74
23 63 34 -3 3 -8 3 -12 0z"/>
<path d="M3567 4240 c5 -20 15 -25 26 -14 9 9 -4 34 -18 34 -8 0 -11 -8 -8
-20z"/>
<path d="M3591 4004 c0 -11 3 -14 6 -6 3 7 2 16 -1 19 -3 4 -6 -2 -5 -13z"/>
<path d="M3590 3922 c0 -17 4 -34 10 -37 6 -4 7 6 3 27 -8 44 -13 48 -13 10z"/>
<path d="M3572 3858 c-13 -13 -16 -38 -4 -38 14 0 27 15 28 33 2 20 -7 22 -24
5z"/>
<path d="M3608 3854 c-4 -3 8 -37 25 -74 31 -68 46 -80 76 -61 11 7 3 23 -35
75 -49 65 -55 71 -66 60z"/>
<path d="M3586 3807 c-16 -12 -17 -18 -5 -56 10 -35 10 -44 0 -50 -7 -5 -11
-17 -9 -27 3 -16 13 -19 58 -20 30 -1 40 1 22 3 -38 5 -53 30 -29 47 14 11 14
17 -2 64 -16 46 -20 50 -35 39z"/>
<path d="M3738 3663 c7 -3 16 -2 19 1 4 3 -2 6 -13 5 -11 0 -14 -3 -6 -6z"/>
<path d="M3724 3633 c-10 -17 2 -73 33 -143 3 -8 5 -23 4 -32 -1 -10 4 -18 11
-18 9 0 9 -3 -2 -10 -13 -8 -12 -10 2 -10 13 0 17 -7 15 -22 -3 -18 -17 -28
-66 -45 -80 -27 -89 -37 -27 -28 39 6 168 55 184 70 3 3 -83 227 -92 242 -1 1
-12 4 -26 8 -18 4 -28 1 -36 -12z"/>
<path d="M6026 3508 c-30 -187 -39 -300 -27 -331 14 -37 64 -59 130 -58 67 1
163 22 165 36 1 6 -17 15 -39 20 -22 6 -45 13 -52 18 -6 4 -18 4 -27 1 -12 -4
-16 0 -16 15 0 12 -6 21 -14 21 -7 0 -20 7 -27 16 -11 14 -11 18 4 29 9 7 17
16 17 21 0 4 -5 3 -12 -4 -21 -21 -28 -13 -28 28 0 22 -4 40 -10 40 -5 0 -10
19 -10 43 0 23 -3 60 -7 82 -5 31 -8 35 -14 20 -6 -17 -8 -16 -8 8 -1 38 -19
34 -25 -5z"/>
<path d="M3770 3298 c-21 -10 -22 -12 -7 -15 10 -3 30 -2 45 2 20 5 23 8 11
16 -17 11 -18 11 -49 -3z"/>
<path d="M5920 3284 c0 -10 5 -26 10 -34 8 -11 9 -7 4 15 -8 37 -14 45 -14 19z"/>
<path d="M3630 3281 c0 -5 14 -14 31 -21 36 -16 268 -8 296 10 14 8 8 9 -27 3
-57 -9 -245 -4 -276 7 -13 5 -24 6 -24 1z"/>
<path d="M3893 3238 c-42 -14 -43 -33 -3 -24 48 9 26 -10 -27 -24 -27 -7 -55
-19 -63 -26 -8 -6 -34 -17 -58 -24 -24 -6 -44 -16 -46 -23 -2 -7 -8 -27 -14
-45 -14 -43 3 -51 63 -27 39 15 47 22 62 66 10 27 22 49 28 49 5 0 33 11 60
24 36 16 51 29 52 45 2 23 -6 24 -54 9z"/>
<path d="M3815 3040 c-19 -8 -19 -9 3 -9 12 -1 22 4 22 9 0 6 -1 10 -2 9 -2 0
-12 -4 -23 -9z"/>
<path d="M3975 3012 c-67 -21 -31 -28 40 -7 30 8 55 18 55 20 0 9 -45 3 -95
-13z"/>
<path d="M3978 2906 c-78 -26 -95 -37 -47 -31 19 2 53 6 76 9 37 3 73 23 73
40 0 10 -34 4 -102 -18z"/>
<path d="M4008 2851 c-28 -26 -35 -46 -20 -53 4 -2 20 -17 35 -34 27 -30 27
-32 11 -48 -16 -16 -15 -17 22 -11 53 9 106 26 122 38 9 7 -4 25 -52 73 -35
35 -70 64 -77 63 -8 -1 -26 -13 -41 -28z"/>
<path d="M3991 2679 c-24 -5 -47 -11 -50 -15 -8 -9 93 4 122 16 22 9 22 9 -3
8 -14 0 -45 -4 -69 -9z"/>
<path d="M3848 2663 c7 -3 16 -2 19 1 4 3 -2 6 -13 5 -11 0 -14 -3 -6 -6z"/>
<path d="M6781 2598 c-1 -12 6 -18 20 -18 11 0 17 5 14 10 -4 6 -10 8 -15 5
-4 -3 -11 1 -13 7 -3 8 -6 6 -6 -4z"/>
<path d="M4600 2277 c0 -22 -90 -116 -149 -155 -344 -230 -1113 -303 -1606
-152 -84 26 -172 69 -240 118 -43 30 -47 32 -34 11 36 -54 195 -141 329 -180
51 -15 42 -13 173 -34 322 -51 720 -36 1027 39 111 28 283 90 322 117 14 11
29 19 32 19 8 0 48 35 105 90 31 30 45 52 43 65 -3 16 -1 18 9 8 21 -21 34
-15 15 6 -11 13 -15 27 -11 40 4 12 2 21 -4 21 -6 0 -11 -6 -11 -13z"/>
<path d="M4145 2054 c-65 -24 -67 -36 -5 -28 76 10 109 22 90 34 -20 13 -37
11 -85 -6z"/>
<path d="M6608 1782 c-4 -29 23 -90 40 -93 4 -1 19 -3 33 -4 14 -2 50 -8 80
-13 54 -10 79 -8 43 4 -60 19 -106 40 -102 47 1 4 -11 15 -27 23 -17 8 -38 26
-46 41 l-16 26 -5 -31z"/>
</g>
</svg>
